<svg width="390" height="844" viewBox="0 0 390 844" fill="none" xmlns="http://www.w3.org/2000/svg">
<g clip-path="url(#clip0_2_1442)">
<rect width="390" height="844" fill="#17174A"/>
<g style="mix-blend-mode:overlay">
<path d="M335.839 170.51L340.864 150.908L323.196 127.678L302.051 127.79C302.051 127.79 112.499 237.5 45.5 270.499C47.5008 362.5 93.0944 386.606 188 386.5C263.925 386.416 303 364.5 321.5 294.5L335.839 170.51Z" fill="url(#paint0_radial_2_1442)"/>
</g>
<g style="mix-blend-mode:overlay">
<path d="M335.839 170.51L340.865 150.908L323.197 127.678L302.051 127.79C302.051 127.79 91.6857 232.519 34.8437 252.501C13.8426 340.501 79.4373 496.106 174.343 496C250.268 495.915 328.843 360 328.843 316.001L335.839 170.51Z" fill="url(#paint1_radial_2_1442)"/>
</g>
<g style="mix-blend-mode:overlay" filter="url(#filter0_f_2_1442)">
<path d="M335.839 170.51L340.865 150.908L323.197 127.678L302.051 127.79C302.051 127.79 95.3414 231.5 43.8411 267.501C-7.65911 303.501 62.6193 457.555 156.341 472.501C236.342 485.259 322.146 374.325 340.865 347.001L335.839 170.51Z" fill="url(#paint2_radial_2_1442)"/>
</g>
<path d="M314.268 130.231L294.195 141.421L327.359 170.596L334.999 146.907L314.268 130.231Z" fill="url(#paint3_linear_2_1442)"/>
<path d="M297.403 125.053L315.738 123.636L314.507 127.055L291.016 137.013L297.403 125.053Z" fill="url(#paint4_linear_2_1442)"/>
<path d="M328.439 99.098C327.403 101.065 325.441 100.869 324.492 99.5322L325.462 -2.55525L328.438 -3.5003L328.439 99.098Z" fill="#D9D9D9"/>
<path d="M328.439 99.098C327.403 101.065 325.441 100.869 324.492 99.5322L325.462 -2.55525L328.438 -3.5003L328.439 99.098Z" fill="url(#paint5_linear_2_1442)"/>
<path d="M342.083 146.194L338.17 147.161L333.465 170.124L339.841 162.32L342.083 146.194Z" fill="url(#paint6_linear_2_1442)"/>
<path d="M313.014 126.164L337.677 98.2048L364.325 116.466L342.15 148.081C341.825 148.544 341.306 148.841 340.74 148.825C330.351 148.53 316.858 134.308 312.834 128.24C312.405 127.592 312.5 126.747 313.014 126.164Z" fill="url(#paint7_linear_2_1442)"/>
<ellipse cx="351.275" cy="107.159" rx="6.45726" ry="16.1432" transform="rotate(-56.2592 351.275 107.159)" fill="url(#paint8_linear_2_1442)"/>
<path d="M345.902 95.4583L363.977 108.279L362.925 113.556C361.519 115.663 353.987 113.746 348.722 110.229C343.456 106.712 339.137 101.325 340.544 99.2187C341.95 97.1126 345.902 95.4583 345.902 95.4583Z" fill="url(#paint9_linear_2_1442)"/>
<ellipse cx="354.22" cy="102.611" rx="4.58593" ry="11.4648" transform="rotate(-56.2592 354.22 102.611)" fill="url(#paint10_linear_2_1442)"/>
<path d="M320.465 92.364C314.204 93.9116 312.954 98.373 313.111 100.41L324.07 115.349C333.075 111.463 334.198 105.925 333.634 103.643L320.465 92.364Z" fill="url(#paint11_linear_2_1442)"/>
<g style="mix-blend-mode:overlay" opacity="0.2">
<path d="M314.268 130.231L294.195 141.421L327.359 170.596L334.999 146.907L314.268 130.231Z" fill="white"/>
<path d="M297.403 125.053L315.738 123.636L314.507 127.054L291.016 137.013L297.403 125.053Z" fill="white"/>
<path d="M342.083 146.194L338.17 147.161L333.465 170.124L339.841 162.32L342.083 146.194Z" fill="white"/>
<path d="M313.014 126.164L337.677 98.2048L364.324 116.466L342.15 148.081C341.825 148.544 341.306 148.841 340.74 148.825C330.351 148.53 316.858 134.308 312.834 128.24C312.405 127.592 312.5 126.747 313.014 126.164Z" fill="white"/>
<ellipse cx="351.275" cy="107.159" rx="6.45726" ry="16.1432" transform="rotate(-56.2592 351.275 107.159)" fill="white"/>
<path d="M345.902 95.4583L363.977 108.279L362.925 113.556C361.519 115.663 353.987 113.746 348.722 110.229C343.456 106.712 339.137 101.325 340.544 99.2187C341.95 97.1126 345.902 95.4583 345.902 95.4583Z" fill="white"/>
<ellipse cx="354.22" cy="102.611" rx="4.58593" ry="11.4648" transform="rotate(-56.2592 354.22 102.611)" fill="white"/>
<path d="M320.465 92.364C314.204 93.9116 312.954 98.373 313.111 100.41L324.07 115.349C333.075 111.463 334.198 105.925 333.634 103.643L320.465 92.364Z" fill="white"/>
</g>
<circle cx="309.5" cy="434.5" r="3.5" fill="#181A50"/>
<circle cx="309.5" cy="498.5" r="3.5" fill="#181A50"/>
<circle cx="309.5" cy="562.5" r="3.5" fill="#181A50"/>
</g>
<defs>
<filter id="filter0_f_2_1442" x="23.9806" y="125.226" width="319.336" height="350.744" filterUnits="userSpaceOnUse" color-interpolation-filters="sRGB">
<feFlood flood-opacity="0" result="BackgroundImageFix"/>
<feBlend mode="normal" in="SourceGraphic" in2="BackgroundImageFix" result="shape"/>
<feGaussianBlur stdDeviation="1.22581" result="effect1_foregroundBlur_2_1442"/>
</filter>
<radialGradient id="paint0_radial_2_1442" cx="0" cy="0" r="1" gradientUnits="userSpaceOnUse" gradientTransform="translate(319.259 131.321) rotate(97.4787) scale(273.5 458.126)">
<stop stop-color="white"/>
<stop offset="0.21853" stop-color="white" stop-opacity="0.596884"/>
<stop offset="0.398615" stop-color="white" stop-opacity="0.367735"/>
<stop offset="0.56764" stop-color="white" stop-opacity="0.252896"/>
<stop offset="0.717399" stop-color="white" stop-opacity="0.136821"/>
<stop offset="0.861346" stop-color="white" stop-opacity="0.061289"/>
<stop offset="1" stop-color="white" stop-opacity="0"/>
</radialGradient>
<radialGradient id="paint1_radial_2_1442" cx="0" cy="0" r="1" gradientUnits="userSpaceOnUse" gradientTransform="translate(319.259 131.321) rotate(97.4787) scale(273.5 458.126)">
<stop stop-color="white"/>
<stop offset="0.21853" stop-color="white" stop-opacity="0.596884"/>
<stop offset="0.398615" stop-color="white" stop-opacity="0.367735"/>
<stop offset="0.56764" stop-color="white" stop-opacity="0.252896"/>
<stop offset="0.717399" stop-color="white" stop-opacity="0.136821"/>
<stop offset="0.861346" stop-color="white" stop-opacity="0.061289"/>
<stop offset="1" stop-color="white" stop-opacity="0"/>
</radialGradient>
<radialGradient id="paint2_radial_2_1442" cx="0" cy="0" r="1" gradientUnits="userSpaceOnUse" gradientTransform="translate(319.258 131.32) rotate(97.4787) scale(273.5 458.126)">
<stop stop-color="white"/>
<stop offset="0.21853" stop-color="white" stop-opacity="0.596884"/>
<stop offset="0.398615" stop-color="white" stop-opacity="0.367735"/>
<stop offset="0.56764" stop-color="white" stop-opacity="0.252896"/>
<stop offset="0.717399" stop-color="white" stop-opacity="0.136821"/>
<stop offset="0.861346" stop-color="white" stop-opacity="0.061289"/>
<stop offset="1" stop-color="white" stop-opacity="0"/>
</radialGradient>
<linearGradient id="paint3_linear_2_1442" x1="328.173" y1="140.29" x2="292.037" y2="185.065" gradientUnits="userSpaceOnUse">
<stop/>
<stop offset="1" stop-color="#666666"/>
</linearGradient>
<linearGradient id="paint4_linear_2_1442" x1="342.417" y1="109.775" x2="320.78" y2="158.238" gradientUnits="userSpaceOnUse">
<stop/>
<stop offset="1" stop-color="#666666"/>
</linearGradient>
<linearGradient id="paint5_linear_2_1442" x1="336.863" y1="82.1572" x2="316.664" y2="80.8087" gradientUnits="userSpaceOnUse">
<stop/>
<stop offset="1" stop-color="#666666"/>
</linearGradient>
<linearGradient id="paint6_linear_2_1442" x1="335.89" y1="152.085" x2="311.002" y2="178.181" gradientUnits="userSpaceOnUse">
<stop/>
<stop offset="1" stop-color="#666666"/>
</linearGradient>
<linearGradient id="paint7_linear_2_1442" x1="354.799" y1="138.929" x2="324.361" y2="111.942" gradientUnits="userSpaceOnUse">
<stop offset="0.12538" stop-color="#282828"/>
<stop offset="0.15292" stop-color="#313131"/>
<stop offset="0.510745"/>
<stop offset="1" stop-color="#666666"/>
</linearGradient>
<linearGradient id="paint8_linear_2_1442" x1="353.731" y1="88.644" x2="358.313" y2="152.666" gradientUnits="userSpaceOnUse">
<stop/>
<stop offset="1" stop-color="#666666"/>
</linearGradient>
<linearGradient id="paint9_linear_2_1442" x1="365.332" y1="113.597" x2="339.027" y2="103.525" gradientUnits="userSpaceOnUse">
<stop/>
<stop offset="1" stop-color="#666666"/>
</linearGradient>
<linearGradient id="paint10_linear_2_1442" x1="351.471" y1="88.0484" x2="366.064" y2="160.508" gradientUnits="userSpaceOnUse">
<stop/>
<stop offset="1" stop-color="#666666"/>
</linearGradient>
<linearGradient id="paint11_linear_2_1442" x1="330.721" y1="96.0577" x2="313.172" y2="109.637" gradientUnits="userSpaceOnUse">
<stop stop-color="#535353"/>
<stop stop-color="#535353"/>
<stop offset="0.125647" stop-color="#292929"/>
<stop offset="0.319253"/>
<stop offset="0.627985" stop-color="#2D2D2D"/>
<stop offset="0.877944" stop-color="#666666"/>
</linearGradient>
<clipPath id="clip0_2_1442">
<rect width="390" height="844" fill="white"/>
</clipPath>
</defs>
</svg>
