<svg width="62" height="36" viewBox="0 0 62 36" fill="none" xmlns="http://www.w3.org/2000/svg">
<path d="M15.413 13.6432L15.2988 12.6328C16.8028 12.2092 18.3324 11.7856 19.6201 11.5365C21.5251 11.1691 22.0018 11.3652 22.0709 11.403C22.3603 11.6651 22.5074 11.981 22.5194 12.3684C22.5644 13.7775 20.9094 15.668 19.9183 16.6688C19.5269 17.065 19.5301 17.7025 19.9264 18.0939C20.3218 18.4862 20.9601 18.4821 21.3515 18.0867C23.5459 15.8682 24.5876 13.9768 24.5346 12.3041C24.504 11.3572 24.1118 10.5212 23.4004 9.88785C22.136 8.76252 19.3966 9.3927 15.0698 10.604L14.7289 7.59137C14.5626 6.12362 13.5916 4.91229 12.1953 4.43081C10.7991 3.94852 9.28798 4.303 8.25268 5.35518C7.30419 6.31895 6.56388 7.14205 6.05186 7.80358C5.19902 8.90399 4.9201 9.61455 5.08809 10.256C5.73516 12.7317 7.94482 14.1159 9.61915 13.9768C10.5741 13.898 11.8835 13.5789 13.3327 13.1826L13.4115 13.8771C13.5562 15.0764 12.9887 16.2371 11.9663 16.8335C8.90939 18.6172 4.59777 19.1372 2.31657 18.5095L2.02077 15.4647H0C0 15.4976 0.00160803 15.5298 0.00482325 15.5627L0.430037 19.937L0.975821 20.1725C1.93396 20.5865 3.17825 20.7818 4.54633 20.7818C7.30338 20.7818 10.562 19.9869 12.9815 18.5746C14.6992 17.573 15.6533 15.6343 15.413 13.6432ZM9.45356 11.9681C8.73014 12.0276 7.50916 11.2696 7.08073 9.89508C7.18522 9.65394 7.65224 8.83888 9.68908 6.76908C10.1818 6.26831 10.8731 6.10674 11.5378 6.33583C12.2026 6.56491 12.6471 7.11954 12.7267 7.81805L13.1036 11.1554C11.6311 11.563 10.3128 11.8974 9.45356 11.9681Z" fill="white"/>
<path d="M24.076 24.7129C25.9553 22.6697 27.4962 20.0549 28.5323 17.1507C29.349 14.8559 29.7437 12.2949 30.0772 9.86906C30.1528 9.31765 29.7678 8.80884 29.2164 8.73328C28.6657 8.65772 28.1561 9.04275 28.0806 9.59416C27.7615 11.9164 27.3861 14.3599 26.6337 16.4739C25.6884 19.1257 24.2906 21.5025 22.593 23.3481C21.1132 24.9565 19.4879 26.036 18.1335 26.3101C17.2485 26.4894 16.5548 26.3117 16.0701 25.7836C15.7831 25.4709 15.509 24.979 15.9343 23.9445C16.2469 23.1849 16.8924 22.2806 17.8023 21.3281C18.1865 20.9254 18.1721 20.288 17.7702 19.903C17.3674 19.5188 16.73 19.5332 16.345 19.9351C15.2478 21.083 14.4826 22.1737 14.0702 23.1769C13.6289 24.2492 13.3605 25.8085 14.5839 27.1445C15.3346 27.9643 16.349 28.3912 17.5049 28.3912C17.8369 28.3912 18.1801 28.3558 18.533 28.2843C20.3206 27.9225 22.2892 26.6541 24.076 24.7113V24.7129Z" fill="white"/>
<path d="M35.8647 1.65219C35.0022 0.287325 33.8777 0.000366211 33.0851 0.000366211C29.8908 0.000366211 29.1087 3.60303 28.8145 4.95905C28.6964 5.50322 29.042 6.03936 29.5854 6.15752C30.1287 6.27568 30.6657 5.93085 30.7838 5.38667C31.4269 2.42384 32.2701 2.01551 33.0843 2.01551C33.3528 2.01551 33.7563 2.08946 34.1598 2.72848C34.9427 3.96795 35.2466 6.53933 34.9717 9.60585C34.6887 12.7648 33.86 15.9792 32.6977 18.4252C31.8762 20.1542 30.7091 21.8342 29.0267 23.7118C28.6554 24.1266 28.6899 24.7632 29.1047 25.1354C29.2968 25.3082 29.5371 25.3926 29.7767 25.3926C30.0532 25.3926 30.3281 25.2793 30.5274 25.0574C32.3432 23.0318 33.6108 21.1991 34.5183 19.2909C36.9973 14.0734 38.1258 5.23234 35.8639 1.65219H35.8647Z" fill="white"/>
<path d="M61.7061 14.4331C60.2818 12.1945 57.6614 11.3401 55.3496 10.5861C53.5692 10.0049 51.8868 9.45675 51.0477 8.41743C50.9006 8.20683 50.7679 7.32345 50.7679 6.56787C50.7679 6.54376 50.7687 6.51964 50.7687 6.49553V6.48267H48.7536C48.748 6.91913 48.7697 8.13529 49.125 9.04761C48.2014 9.07655 47.1942 9.43022 46.2473 10.0733C45.0207 10.906 44.0144 12.1495 43.4855 13.4846C43.2307 14.1309 43.3585 15.4057 44.0996 16.4949C44.815 17.5463 46.3317 18.7922 49.5156 18.887C49.346 19.0341 49.1708 19.1691 48.9899 19.2905C47.5399 20.2631 46.2441 20.911 44.6341 20.911C44.0803 20.911 43.5192 20.4874 42.967 19.653C42.3344 18.6965 41.2364 18.203 40.103 18.3669C38.9737 18.5301 38.0654 19.309 37.7302 20.4006C35.1194 28.9281 30.7194 32.8443 27.472 33.665C26.325 33.9552 25.3106 33.837 24.8235 33.3571C24.4063 32.9456 24.3565 32.6433 24.3549 32.4512C24.3484 31.469 25.7439 29.9755 27.173 28.5303C27.5645 28.1348 27.5605 27.4966 27.165 27.1051C26.7687 26.7137 26.1313 26.7169 25.7398 27.1132C23.8059 29.0688 22.3277 30.7046 22.3389 32.4641C22.3446 33.3153 22.7047 34.0982 23.4088 34.7919C24.1081 35.4824 25.1145 35.8401 26.2888 35.8401C26.8177 35.8401 27.3812 35.7669 27.9656 35.619C30.0884 35.0829 32.3077 33.5886 34.2144 31.4127C36.5116 28.7923 38.3427 25.2853 39.6577 20.9914C39.8089 20.497 40.2212 20.3869 40.3908 20.362C40.525 20.3427 40.988 20.3146 41.2862 20.7655C42.2347 22.1995 43.3609 22.9261 44.6341 22.9261C46.8775 22.9261 48.5928 21.9833 50.1128 20.964C50.9335 20.4134 51.6779 19.657 52.2518 18.801C53.4277 18.723 55.5184 18.5454 57.4243 18.1869C60.7086 17.5696 61.4963 16.7754 61.8163 16.1525C62.0952 15.6091 62.055 14.9821 61.7061 14.4331ZM51.0396 16.8494C50.6032 16.8678 50.2141 16.8775 49.9087 16.8775C48.0286 16.8775 46.6508 16.4249 45.9242 15.5681C45.4218 14.9773 45.3696 14.3487 45.3832 14.1687C46.2096 12.1583 48.3766 10.8031 49.5952 11.0997C50.44 11.3055 51.0292 12.0402 51.3443 13.2837C51.7164 14.757 51.4319 15.9796 51.0396 16.8494ZM56.8769 16.2385C55.6237 16.4651 54.2942 16.6114 53.2413 16.7039C53.6118 15.4451 53.6335 14.1172 53.2975 12.7885C53.2179 12.4742 53.1255 12.1857 53.0226 11.9212C53.5813 12.1294 54.156 12.3167 54.7251 12.5024C56.7306 13.1567 58.802 13.8319 59.8831 15.335C59.5994 15.5207 58.8317 15.8848 56.8769 16.2385Z" fill="white"/>
<path d="M22.5609 5.2525H17.6914C17.0691 5.2525 16.5645 5.75687 16.5645 6.37904C16.5645 7.0012 17.0691 7.50557 17.6914 7.50557H22.5609C23.1833 7.50557 23.6878 7.0012 23.6878 6.37904C23.6878 5.75687 23.1833 5.2525 22.5609 5.2525Z" fill="white"/>
<path d="M40.353 16.3108C41.2798 16.0921 41.8538 15.1635 41.6351 14.2367C41.4163 13.3099 40.4877 12.736 39.5609 12.9547C38.6342 13.1734 38.0602 14.1021 38.2789 15.0288C38.4977 15.9556 39.4263 16.5296 40.353 16.3108Z" fill="white"/>
</svg>
